<svg width="99" height="36" viewBox="0 0 99 36" fill="none" xmlns="http://www.w3.org/2000/svg">
<path d="M6.64678 33.665C6.18384 33.7532 5.84622 33.8078 5.63391 33.8286C5.20927 33.8702 4.82294 33.8652 4.47491 33.8136C3.38628 33.6416 2.78888 33.0143 2.68273 31.9315C2.60572 31.1459 2.70917 30.3426 2.9931 29.5217C3.53097 28.0113 4.00244 26.8076 4.40751 25.9104C4.9 24.8118 5.34233 23.8574 5.73449 23.0473C6.12457 22.216 6.45283 21.5193 6.71927 20.9573C7.57603 19.2013 8.20695 17.8747 8.61202 16.9776C9.37511 15.3594 10.3516 13.1845 11.5414 10.4527L11.9891 9.44417C12.0466 9.37423 12.0924 9.29472 12.1265 9.20563C12.1606 9.11654 12.2054 9.02641 12.2608 8.93524C12.3886 8.70835 12.5851 8.6355 12.8502 8.71668C13.0751 8.82326 13.1968 8.97209 13.2156 9.16317C13.226 9.26933 13.2056 9.38922 13.1544 9.52286C13.1244 9.65441 13.1029 9.76369 13.09 9.8507L12.5118 12.4797C12.4943 12.7386 12.4928 12.9424 12.5074 13.091C12.5282 13.3033 12.564 13.4499 12.6148 13.5306C12.6402 13.571 12.6571 13.6337 12.6654 13.7186C12.6779 13.846 12.6362 13.9679 12.5405 14.0845C12.4406 14.1586 12.3482 14.1998 12.2632 14.2082C12.1358 14.2206 12.0255 14.1886 11.9323 14.112C11.6421 13.776 11.4843 13.5879 11.4589 13.5475L11.2928 13.821L6.31773 24.4049C5.69535 25.7092 5.0407 27.231 4.35379 28.9703C4.07195 29.8125 3.88253 30.6134 3.78552 31.3732C3.76804 31.6321 3.76346 31.8041 3.77178 31.889C3.80717 32.2499 3.97119 32.5018 4.26385 32.6446C4.57566 32.7641 5.03943 32.7936 5.65514 32.7333C6.1647 32.6833 6.79228 32.5253 7.53788 32.2593C9.23516 31.6428 11.0519 30.7144 12.9882 29.4743C13.1709 29.3706 13.6948 29.0299 14.5599 28.452L15.4941 27.8138C15.5345 27.7884 15.594 27.7397 15.6727 27.6677C15.7726 27.5936 15.865 27.5524 15.95 27.5441C16.1198 27.5274 16.2641 27.5776 16.3827 27.6946C16.406 27.7137 16.4218 27.7658 16.4302 27.8507C16.4406 27.9568 16.4287 28.0545 16.3946 28.1436C16.4137 28.1202 16.2766 28.2516 15.9831 28.5376C14.5202 29.7957 12.6668 31.0063 10.4229 32.1694C8.93125 32.9158 7.67255 33.4144 6.64678 33.665ZM12.5949 34.6895C12.2085 34.6845 11.9284 34.6691 11.7543 34.6433C10.6466 34.4947 9.99609 33.8725 9.80293 32.7768C9.6897 32.0591 9.66347 31.3543 9.72426 30.6624C9.83791 28.9793 10.3227 26.9275 11.1786 24.5071C12.438 20.954 14.1103 17.8962 16.1956 15.3339C17.8891 13.3672 19.6901 11.8402 21.5984 10.7529C22.8373 10.0526 23.9982 9.64946 25.081 9.54331C25.3358 9.51833 25.5279 9.51021 25.6574 9.51896C26.2773 9.50106 26.7654 9.56038 27.1217 9.69693C27.6055 9.82099 28.003 10.05 28.3144 10.3838C28.6258 10.7177 28.8044 11.1182 28.8502 11.5853C28.8731 11.8188 28.8471 12.1001 28.7722 12.4289C28.6439 12.8702 28.3858 13.5172 27.9978 14.3698C27.9445 14.4822 27.855 14.6624 27.7293 14.9105C27.6227 15.1353 27.5713 15.3762 27.5751 15.633C27.598 15.8666 27.4735 16.0181 27.2016 16.0876C26.9468 16.1126 26.7751 16.0008 26.6865 15.7523C26.6103 15.6311 26.5649 15.4963 26.5503 15.3476C26.5358 15.199 26.5691 14.9921 26.6502 14.7269C26.6781 14.5742 26.7474 14.4066 26.8582 14.2242C26.9668 14.0207 27.0468 13.8521 27.098 13.7184C27.1513 13.606 27.2376 13.3939 27.3571 13.0821C27.4766 12.7703 27.5557 12.4839 27.5944 12.2229C27.6415 12.0468 27.6587 11.895 27.6463 11.7676C27.6254 11.5553 27.5324 11.3715 27.3671 11.2162C27.1998 11.0397 26.9941 10.9098 26.7502 10.8266C26.3534 10.7154 25.9215 10.6827 25.4544 10.7285C25.1784 10.7556 24.9671 10.787 24.8206 10.8228C23.8714 10.9802 22.9399 11.318 22.0261 11.8363C20.0179 12.9978 18.253 14.5641 16.7314 16.5353C13.7818 20.3399 11.8362 24.7642 10.8945 29.8081C10.7292 30.7461 10.6799 31.5547 10.7465 32.2341C10.7985 32.7649 10.9644 33.1452 11.2442 33.375C11.5431 33.5815 12.0025 33.6758 12.6223 33.6579L13.1032 33.6429C13.9312 33.5618 14.8244 33.2706 15.7827 32.7693C18.4729 31.3481 20.6246 29.5723 22.2378 27.4421C22.3527 27.3022 22.4187 27.21 22.4357 27.1655C22.6355 27.0173 22.8139 26.9783 22.9709 27.0487C23.1066 27.1211 23.1797 27.2104 23.1901 27.3166C23.1963 27.3803 23.1632 27.48 23.0908 27.6157L22.9884 27.883C22.8926 27.9995 22.7511 28.1956 22.5637 28.4712L22.0529 29.1644C20.2574 31.1838 18.0689 32.8024 15.4874 34.0201C14.5378 34.3919 13.7551 34.6079 13.1394 34.6683C12.9058 34.6912 12.7243 34.6983 12.5949 34.6895ZM25.0069 24.2768C24.6522 24.3759 24.3583 24.3297 24.1252 24.1382C23.892 23.9467 23.7642 23.627 23.7418 23.179C23.7659 22.7694 23.8771 22.3726 24.0752 21.9888C24.2925 21.5817 24.5904 21.2309 24.9688 20.9366C25.1495 20.8117 25.3768 20.7251 25.6507 20.6768C25.9459 20.6265 26.1253 20.5982 26.189 20.5919L26.2527 20.5857C26.4863 20.5628 26.7142 20.7012 26.9365 21.0009C27.1334 21.2603 27.2433 21.5068 27.2662 21.7403C27.2849 21.9314 27.2516 22.1383 27.1663 22.361C26.7312 23.3897 26.0114 24.0283 25.0069 24.2768ZM24.7571 23.3689C25.322 23.2277 25.8004 22.8593 26.1921 22.2636C26.2775 22.0409 26.317 21.8977 26.3108 21.834C26.2983 21.7066 26.2444 21.594 26.149 21.4961C26.0724 21.5894 25.9555 21.708 25.7981 21.8521C25.7789 21.8754 25.73 21.923 25.6514 21.9951C25.5918 22.0438 25.5408 22.0702 25.4984 22.0744C25.2436 22.0994 25.0544 22.2465 24.9307 22.5159C24.9137 22.5604 24.8604 22.6728 24.7709 22.8531C24.7005 23.01 24.6959 23.1819 24.7571 23.3689ZM29.8862 24.0236C29.5911 24.0739 29.3396 24.0236 29.1319 23.8724C28.9433 23.698 28.845 23.4611 28.8371 23.1618C28.8417 22.9899 28.8625 22.6556 28.8996 22.1589C28.5874 22.2538 28.1921 22.4855 27.7137 22.8539C27.6734 22.8793 27.5043 23.0138 27.2067 23.2573L26.7027 23.6926C26.5454 23.8366 26.403 23.9149 26.2756 23.9274C26.1907 23.9357 26.0804 23.9037 25.9446 23.8312C25.8281 23.7355 25.7625 23.6133 25.7479 23.4647C25.7417 23.401 25.7515 23.2821 25.7773 23.1081L26.4086 21.0205C26.5027 20.6683 26.693 20.5318 26.9794 20.6109C27.1959 20.6325 27.3156 20.7601 27.3384 20.9937L27.3029 21.2866C27.2729 21.4181 27.2323 21.5507 27.1811 21.6843C27.149 21.7947 27.118 21.9156 27.088 22.0471L27.4577 21.8823C27.5789 21.8061 27.7722 21.7014 28.0378 21.5682C28.3014 21.4137 28.5457 21.2826 28.771 21.1748C28.8326 21.1473 28.9377 21.1263 29.0863 21.1117C29.3411 21.0867 29.5415 21.1635 29.6877 21.3421C29.8317 21.4995 29.8971 21.7289 29.8837 22.0303C29.8771 22.181 29.8523 22.3656 29.8094 22.5842C29.7857 22.7794 29.7695 22.9418 29.7607 23.0713C30.1599 22.9893 30.3798 22.9356 30.4201 22.9102C31.3252 22.5213 32.3928 22.0415 33.623 21.4708C33.9481 21.2889 34.1521 21.1831 34.235 21.1536C34.2753 21.1282 34.3486 21.1103 34.4548 21.0999C34.5822 21.0874 34.6946 21.1407 34.792 21.2597C34.8428 21.3405 34.8702 21.4021 34.8744 21.4446C34.8848 21.5507 34.8113 21.6758 34.654 21.8199C34.4158 22.0147 34.2352 22.1396 34.1119 22.1945C33.3343 22.5709 32.1657 23.1142 30.6062 23.8244C30.4618 23.8814 30.2218 23.9478 29.8862 24.0236ZM34.6905 19.1154C34.2871 19.155 34.0196 19.1597 33.8881 19.1298C33.8223 19.1148 33.7576 19.1104 33.6939 19.1167C33.6493 19.0996 33.6038 19.0719 33.5571 19.0336C33.4639 18.957 33.4173 18.9187 33.4173 18.9187C33.411 18.855 33.426 18.7892 33.4622 18.7214C33.4814 18.6981 33.4984 18.6535 33.5134 18.5877C33.5496 18.5199 33.6304 18.4691 33.7557 18.4354C34.1316 18.3342 34.3652 18.3113 34.4563 18.3667L34.8254 18.5234L34.8822 18.7751L34.9266 18.8993C34.9391 19.0267 34.8604 19.0988 34.6905 19.1154ZM32.6117 23.8207C32.3357 23.8477 32.1161 23.7942 31.9529 23.6602C31.7664 23.507 31.6702 23.2913 31.6644 23.0133C31.6881 22.818 31.7225 22.6217 31.7674 22.4244C31.9148 21.9598 32.0599 21.5812 32.2027 21.2885C32.3455 20.9958 32.5659 20.6205 32.864 20.1626C32.9214 20.0927 32.9895 20.0217 33.0682 19.9497C33.1448 19.8564 33.232 19.7621 33.3298 19.6668C33.4297 19.5927 33.5222 19.5515 33.6071 19.5432C33.7132 19.5327 33.8119 19.5552 33.9031 19.6106C33.9942 19.666 34.0556 19.7457 34.0873 19.8498C34.1381 19.9305 34.1464 20.0155 34.1123 20.1045C34.0248 20.306 33.9449 20.4746 33.8725 20.6104C33.798 20.7248 33.7255 20.8606 33.6552 21.0175C33.6402 21.0833 33.6019 21.1299 33.5403 21.1574C33.3171 21.2864 33.1502 21.4421 33.0394 21.6245C32.9479 21.7835 32.8519 22.0073 32.7516 22.2958C32.6725 22.5822 32.6063 22.7816 32.553 22.894C32.6462 22.9706 32.6929 23.0089 32.6929 23.0089C33.0284 22.9331 33.2472 22.8688 33.3492 22.8159C34.5302 22.4 35.6449 21.7442 36.6931 20.8483C36.7718 20.7763 36.8803 20.6799 37.0185 20.5592C37.1779 20.4364 37.3182 20.3369 37.4394 20.2607C37.5351 20.1441 37.6467 20.0796 37.7741 20.0671C37.859 20.0588 37.9481 20.0929 38.0413 20.1695C38.1113 20.227 38.1494 20.2875 38.1556 20.3512C38.166 20.4574 38.0926 20.5825 37.9352 20.7265L37.4119 21.2923C36.1317 22.4467 34.7642 23.256 33.3092 23.7201C33.1414 23.758 32.9089 23.7915 32.6117 23.8207ZM39.061 23.1241C38.7658 23.1745 38.5144 23.1241 38.3066 22.973C38.1181 22.7986 38.0198 22.5617 38.0119 22.2624C38.0165 22.0904 38.0373 21.7561 38.0744 21.2595C37.7621 21.3544 37.3668 21.5861 36.8885 21.9545C36.8481 21.9799 36.6791 22.1144 36.3814 22.3579L35.8775 22.7931C35.7201 22.9372 35.5778 23.0154 35.4504 23.0279C35.3654 23.0363 35.2551 23.0042 35.1194 22.9318C35.0028 22.836 34.9373 22.7138 34.9227 22.5652C34.9165 22.5015 34.9263 22.3827 34.9521 22.2086L35.5834 20.1211C35.6775 19.7689 35.8677 19.6323 36.1542 19.7114C36.3706 19.7331 36.4903 19.8607 36.5132 20.0942L36.4776 20.3871C36.4476 20.5187 36.4071 20.6513 36.3558 20.7849C36.3238 20.8952 36.2928 21.0161 36.2628 21.1477L36.6325 20.9828C36.7536 20.9067 36.947 20.802 37.2126 20.6687C37.4761 20.5143 37.7205 20.3832 37.9457 20.2753C38.0073 20.2479 38.1124 20.2268 38.2611 20.2123C38.5158 20.1873 38.7163 20.2641 38.8624 20.4427C39.0065 20.6001 39.0718 20.8294 39.0585 21.1309C39.0518 21.2816 39.0271 21.4662 38.9842 21.6847C38.9605 21.88 38.9442 22.0424 38.9355 22.1718C39.3347 22.0898 39.5545 22.0361 39.5949 22.0107C40.5 21.6219 41.5676 21.1421 42.7977 20.5714C43.1229 20.3894 43.3269 20.2837 43.4097 20.2541C43.4501 20.2287 43.5234 20.2108 43.6295 20.2004C43.7569 20.1879 43.8693 20.2412 43.9667 20.3603C44.0175 20.4411 44.045 20.5027 44.0492 20.5451C44.0596 20.6513 43.9861 20.7764 43.8287 20.9204C43.5906 21.1153 43.4099 21.2402 43.2867 21.2951C42.509 21.6714 41.3405 22.2147 39.781 22.9249C39.6365 22.982 39.3965 23.0484 39.061 23.1241ZM47.5876 27.9794C47.3857 28.1063 47.2317 28.175 47.1255 28.1854C47.0194 28.1958 46.8412 28.1276 46.591 27.9806C46.4765 27.9061 46.3004 27.859 46.0627 27.8395C44.1011 27.946 42.6288 28.0154 41.6459 28.0474C41.0069 28.0886 40.3085 28.0713 39.5509 27.9956C39.2474 27.961 38.9281 27.8744 38.5929 27.7358C38.2557 27.5759 38.0726 27.3474 38.0434 27.0501C38.0205 26.8166 38.0953 26.5949 38.2676 26.3851C38.5549 26.0354 38.8313 25.7939 39.0969 25.6607C40.1339 25.0875 41.0635 24.6212 41.8857 24.2619C43.8191 23.4293 45.9963 22.68 48.4176 22.0139C48.7531 21.9382 49.0037 21.8707 49.1694 21.8116C49.3351 21.7525 49.4467 21.688 49.5041 21.618C49.8447 21.1559 50.2757 20.5242 50.7974 19.7228L50.3322 19.897C50.2705 19.9245 50.1983 19.953 50.1155 19.9826C50.0326 20.0121 49.9381 20.0321 49.832 20.0425L49.7364 20.0519C49.5453 20.0706 49.3874 19.9897 49.2625 19.809C49.2371 19.7686 49.2202 19.7059 49.2119 19.621C49.1952 19.4512 49.2464 19.3175 49.3655 19.2201C49.5378 19.0103 49.7154 18.8536 49.8982 18.7499L50.7811 18.2453C51.595 17.8011 52.104 17.5262 52.3079 17.4204C52.7796 17.2027 53.1135 16.8913 53.3096 16.4863C54.9082 13.1142 56.0747 10.3633 56.8091 8.23345L56.8672 7.84191L56.5481 8.19473L56.1265 8.81482C55.6753 9.45925 55.394 9.97984 55.2829 10.3766C55.2209 10.6185 55.0593 10.72 54.7983 10.6813C54.5352 10.6214 54.4124 10.4619 54.4299 10.203C54.4515 9.9865 54.4996 9.82102 54.5741 9.70653C55.2111 8.55087 55.9423 7.48243 56.7679 6.5012L56.9721 6.28826C57.1719 6.14006 57.3355 6.05972 57.4629 6.04723C57.5478 6.0389 57.6465 6.06138 57.7589 6.11467C58.0303 6.25954 58.1402 6.506 58.0886 6.85403C58.007 7.33361 57.9235 7.68476 57.8382 7.90749L55.7387 13.3865C55.6363 13.6537 55.5924 13.8617 55.607 14.0103L56.0472 13.5813C58.8123 10.7379 61.7348 8.29717 64.8146 6.25895C66.0644 5.45049 67.1257 4.90701 67.9987 4.62851C68.2664 4.51652 68.5914 4.4418 68.9735 4.40433C69.19 4.42598 69.3682 4.49426 69.5081 4.60916C69.6479 4.72406 69.7272 4.87705 69.746 5.06813C69.7585 5.19552 69.7476 5.30376 69.7135 5.39285C69.6173 5.72381 69.482 5.98359 69.3076 6.17217C68.848 6.73168 68.3534 7.26247 67.8239 7.76453C66.5883 8.93601 64.7599 10.4014 62.3386 12.1607C61.9198 12.4804 61.4086 12.8413 60.805 13.2435C60.2225 13.6436 59.7709 13.9558 59.4499 14.1802L58.0055 15.1899C57.7653 15.3635 57.6079 15.5075 57.5334 15.622C57.5971 15.6158 57.6618 15.6202 57.7276 15.6351C57.8125 15.6268 57.907 15.6068 58.0111 15.5752C59.2684 15.2805 60.7144 15.053 62.3492 14.8927C63.156 14.8136 63.7622 14.7649 64.1677 14.7466C67.4731 14.5726 70.4033 14.7247 72.9581 15.2031C73.6987 15.3234 74.4264 15.5307 75.1412 15.8251C75.5613 15.9554 75.9715 16.2045 76.372 16.5725C76.7725 16.9406 76.9936 17.3369 77.0352 17.7615C77.0623 18.0375 77.0075 18.3537 76.871 18.7101C76.5662 19.3187 76.2565 19.7671 75.9418 20.0551C75.3144 20.6525 74.6075 21.2041 73.8211 21.7099C72.0081 22.8951 69.7082 23.9244 66.9215 24.7978C64.9865 25.3948 62.9753 25.8706 60.8879 26.2253C58.8218 26.5779 56.5063 26.9014 53.9415 27.1957C52.6676 27.3206 50.7547 27.4867 48.2027 27.694C48.0753 27.7065 47.8703 27.8016 47.5876 27.9794ZM55.3872 15.7038C55.4721 15.6955 55.5762 15.6639 55.6994 15.6089C59.7292 12.9845 63.0124 10.6156 65.549 8.502C66.3017 7.87089 67.1097 7.1486 67.9731 6.33515C68.0901 6.2165 68.2146 6.06497 68.3466 5.88055C68.4998 5.69404 68.6338 5.53085 68.7487 5.39097C68.685 5.39722 68.6213 5.40346 68.5576 5.40971C68.5131 5.39264 68.4706 5.3968 68.4302 5.42219L67.9937 5.56145C67.0441 5.9332 65.9168 6.5689 64.6117 7.46852C61.4977 9.59583 58.4782 12.2498 55.5533 15.4303L55.2916 15.7132L55.3872 15.7038ZM53.2171 26.3664C57.7819 25.9189 61.7464 25.2516 65.1105 24.3645C67.5975 23.7134 69.86 22.8485 71.8978 21.7699C72.5693 21.4039 73.1367 21.0697 73.6 20.767C74.0634 20.4644 74.5024 20.1319 74.917 19.7698C75.2871 19.3905 75.5946 19.0281 75.8394 18.6826C76.0438 18.3624 76.1345 18.0856 76.1116 17.852C76.0783 17.5123 75.8571 17.2232 75.4478 16.9847C75.0578 16.7228 74.6537 16.5374 74.2358 16.4283C72.9627 16.1244 72.0874 15.9422 71.6099 15.8819C68.5518 15.5172 65.6214 15.4722 62.8188 15.7469C60.7806 15.9468 58.6964 16.3333 56.5661 16.9065C55.8759 17.0814 55.0974 17.3399 54.2307 17.6821C53.878 17.8024 53.6027 18.0545 53.4045 18.4383C53.3554 18.5932 53.0879 19.1446 52.6021 20.0925L52.2761 20.7032C52.2782 20.7244 52.2376 20.857 52.1543 21.101L52.7881 21.0067C54.5995 20.6791 56.1421 20.4528 57.416 20.3279C58.1379 20.2572 59.2036 20.1956 60.6132 20.1431C60.7831 20.1265 60.9009 20.1256 60.9667 20.1406C61.1935 20.2684 61.3112 20.3748 61.3195 20.4597C61.3257 20.5234 61.2895 20.5913 61.2108 20.6633C61.1534 20.7332 61.0949 20.7925 61.0353 20.8413C60.995 20.8667 60.9217 20.8846 60.8155 20.895C58.8835 21.0844 57.2719 21.2638 55.981 21.4332C54.6879 21.5814 53.4107 21.7817 52.1493 22.0339C51.6885 22.1434 51.3675 22.3678 51.1864 22.7071C50.922 23.2903 50.5099 24.006 49.95 24.854L48.7779 26.673C48.9094 26.703 48.9752 26.718 48.9752 26.718L50.9528 26.5562L53.2171 26.3664ZM48.0691 26.003C48.4904 25.4901 48.9311 24.8467 49.3911 24.0728C49.849 23.2776 50.0888 22.7718 50.1105 22.5553C49.8894 22.7056 49.5308 23.2017 49.0345 24.0434C48.5362 24.864 48.2144 25.5171 48.0691 26.003ZM48.5462 22.9981C48.3126 23.021 48.1545 23.0472 48.0716 23.0768C47.5321 23.2583 47.1264 23.3838 46.8545 23.4533C45.3571 23.9216 44.2058 24.3132 43.4007 24.6279C42.74 24.8856 41.5502 25.4309 39.8313 26.2639C39.6273 26.3697 39.4657 26.4713 39.3467 26.5687C39.2276 26.6661 39.1138 26.8166 39.0051 27.0202C40.4547 27.1567 42.3938 27.1488 44.8225 26.9965C45.2259 26.9569 45.7907 26.923 46.5167 26.8947L48.5462 22.9981ZM79.1648 14.7554C78.7614 14.7949 78.4939 14.7997 78.3624 14.7697C78.2966 14.7548 78.2319 14.7504 78.1682 14.7566C78.1236 14.7396 78.078 14.7119 78.0314 14.6736C77.9382 14.597 77.8915 14.5587 77.8915 14.5587C77.8853 14.495 77.9003 14.4292 77.9365 14.3613C77.9557 14.338 77.9727 14.2935 77.9877 14.2277C78.0239 14.1599 78.1047 14.1091 78.23 14.0753C78.6059 13.9742 78.8395 13.9513 78.9306 14.0067L79.2997 14.1634L79.3565 14.4151L79.4009 14.5393C79.4133 14.6667 79.3347 14.7387 79.1648 14.7554ZM77.086 19.4607C76.81 19.4877 76.5904 19.4342 76.4272 19.3002C76.2407 19.147 76.1445 18.9313 76.1387 18.6532C76.1624 18.458 76.1968 18.2617 76.2417 18.0644C76.3891 17.5998 76.5342 17.2211 76.677 16.9285C76.8198 16.6358 77.0402 16.2605 77.3383 15.8026C77.3957 15.7327 77.4638 15.6617 77.5425 15.5897C77.6191 15.4964 77.7063 15.4021 77.8041 15.3068C77.904 15.2327 77.9964 15.1915 78.0814 15.1831C78.1875 15.1727 78.2862 15.1952 78.3774 15.2506C78.4685 15.3059 78.5299 15.3857 78.5616 15.4897C78.6124 15.5705 78.6207 15.6554 78.5866 15.7445C78.4991 15.946 78.4192 16.1146 78.3468 16.2503C78.2722 16.3648 78.1998 16.5005 78.1295 16.6575C78.1145 16.7233 78.0762 16.7699 78.0146 16.7974C77.7914 16.9264 77.6245 17.0821 77.5137 17.2644C77.4221 17.4235 77.3262 17.6472 77.2259 17.9357C77.1468 18.2222 77.0806 18.4216 77.0273 18.534C77.1205 18.6106 77.1672 18.6489 77.1672 18.6489C77.5027 18.5731 77.7215 18.5088 77.8235 18.4559C79.0045 18.04 80.1192 17.3841 81.1674 16.4883C81.2461 16.4162 81.3546 16.3199 81.4928 16.1991C81.6522 16.0763 81.7925 15.9768 81.9137 15.9007C82.0094 15.7841 82.121 15.7196 82.2484 15.7071C82.3333 15.6987 82.4224 15.7329 82.5156 15.8095C82.5856 15.8669 82.6237 15.9275 82.6299 15.9912C82.6403 16.0974 82.5668 16.2225 82.4095 16.3665L81.8862 16.9323C80.606 18.0867 79.2385 18.896 77.7835 19.3601C77.6157 19.398 77.3832 19.4315 77.086 19.4607ZM81.8311 19.0919C81.4277 19.1315 81.0499 19.1042 80.6977 19.0101C80.3031 18.9202 79.9861 18.7476 79.7467 18.4924C79.5073 18.2372 79.3699 17.9292 79.3346 17.5682C79.3242 17.4621 79.3277 17.2795 79.3452 17.0206C79.4996 16.1909 79.8958 15.5304 80.5335 15.0392C80.7929 14.8423 81.0606 14.7303 81.3366 14.7032C81.5277 14.6845 81.7123 14.7093 81.8905 14.7776C82.1324 14.8396 82.3178 14.9822 82.4469 15.2053C82.5972 15.4264 82.6636 15.6664 82.6461 15.9253C82.5965 16.2946 82.4165 16.6445 82.1059 16.975C81.8166 17.3035 81.5031 17.495 81.1655 17.5495C81.0381 17.562 80.8768 17.5564 80.6815 17.5327C80.4863 17.5089 80.3451 17.4906 80.2581 17.4777C80.2935 17.8386 80.5181 18.0524 80.9319 18.119C81.2163 18.1769 81.5283 18.1892 81.868 18.1559C82.0803 18.1351 82.3542 18.0868 82.6898 18.011C83.7518 17.6925 84.6389 17.2304 85.3512 16.6247C85.5086 16.4807 85.6403 16.4035 85.7465 16.393L85.842 16.3837C86.0331 16.3649 86.1424 16.3864 86.1699 16.448C86.2186 16.5075 86.2471 16.5798 86.2554 16.6647C86.2638 16.7496 86.2604 16.825 86.2454 16.8907C86.2134 17.0011 86.1091 17.1399 85.9326 17.3072C84.6612 18.3322 83.294 18.9271 81.8311 19.0919ZM80.5691 16.3862C80.8364 16.4886 81.0337 16.5335 81.1611 16.521C81.3734 16.5002 81.5404 16.3445 81.6619 16.0539C81.6981 15.9861 81.7131 15.9203 81.7069 15.8566C81.7219 15.7908 81.7167 15.7378 81.6913 15.6974C81.5322 15.6058 81.3911 15.5875 81.2679 15.6424C80.9577 15.7586 80.7248 16.0065 80.5691 16.3862ZM86.2247 14.0633C85.8213 14.1028 85.5538 14.1076 85.4223 14.0776C85.3565 14.0626 85.2918 14.0583 85.2281 14.0645C85.1835 14.0474 85.138 14.0198 85.0913 13.9815C84.9981 13.9049 84.9514 13.8666 84.9514 13.8666C84.9452 13.8029 84.9602 13.7371 84.9964 13.6692C85.0156 13.6459 85.0326 13.6014 85.0476 13.5356C85.0838 13.4677 85.1646 13.417 85.2899 13.3832C85.6658 13.2821 85.8994 13.2592 85.9905 13.3145L86.3596 13.4713L86.4164 13.7229L86.4608 13.8472C86.4733 13.9746 86.3946 14.0466 86.2247 14.0633ZM84.1459 18.7685C83.8699 18.7956 83.6503 18.7421 83.4871 18.6081C83.3006 18.4549 83.2044 18.2392 83.1986 17.9611C83.2223 17.7659 83.2567 17.5696 83.3016 17.3723C83.449 16.9077 83.5941 16.529 83.7369 16.2364C83.8797 15.9437 84.1001 15.5684 84.3982 15.1105C84.4556 15.0405 84.5237 14.9696 84.6024 14.8975C84.679 14.8043 84.7662 14.71 84.864 14.6147C84.9639 14.5406 85.0564 14.4993 85.1413 14.491C85.2474 14.4806 85.3461 14.5031 85.4373 14.5585C85.5284 14.6138 85.5898 14.6936 85.6215 14.7976C85.6723 14.8784 85.6806 14.9633 85.6465 15.0524C85.559 15.2539 85.4791 15.4225 85.4067 15.5582C85.3322 15.6727 85.2597 15.8084 85.1894 15.9654C85.1744 16.0311 85.1361 16.0778 85.0745 16.1052C84.8513 16.2343 84.6844 16.39 84.5736 16.5723C84.4821 16.7314 84.3861 16.9551 84.2858 17.2436C84.2067 17.53 84.1405 17.7294 84.0872 17.8418C84.1804 17.9185 84.2271 17.9568 84.2271 17.9568C84.5626 17.881 84.7814 17.8167 84.8834 17.7638C86.0644 17.3479 87.1791 16.692 88.2273 15.7961C88.306 15.7241 88.4145 15.6278 88.5527 15.507C88.7121 15.3842 88.8524 15.2847 88.9736 15.2085C89.0693 15.092 89.1809 15.0274 89.3083 15.015C89.3932 15.0066 89.4823 15.0408 89.5755 15.1174C89.6455 15.1748 89.6836 15.2354 89.6898 15.2991C89.7002 15.4052 89.6268 15.5303 89.4694 15.6744L88.9461 16.2401C87.6659 17.3945 86.2984 18.2038 84.8434 18.668C84.6756 18.7059 84.4431 18.7394 84.1459 18.7685ZM88.891 18.3998C88.4876 18.4394 88.1098 18.4121 87.7577 18.318C87.363 18.2281 87.046 18.0555 86.8066 17.8003C86.5672 17.5451 86.4299 17.2371 86.3945 16.8761C86.3841 16.77 86.3876 16.5874 86.4051 16.3285C86.5595 15.4988 86.9557 14.8383 87.5934 14.3471C87.8528 14.1502 88.1205 14.0382 88.3965 14.0111C88.5876 13.9924 88.7722 14.0172 88.9504 14.0854C89.1923 14.1475 89.3777 14.2901 89.5068 14.5132C89.6571 14.7343 89.7235 14.9743 89.706 15.2332C89.6564 15.6025 89.4764 15.9524 89.1658 16.2829C88.8765 16.6114 88.563 16.8029 88.2254 16.8574C88.098 16.8699 87.9367 16.8643 87.7414 16.8405C87.5462 16.8168 87.405 16.7985 87.318 16.7856C87.3534 17.1465 87.578 17.3603 87.9918 17.4269C88.2762 17.4848 88.5882 17.4971 88.9279 17.4638C89.1402 17.4429 89.4141 17.3946 89.7497 17.3189C90.8117 17.0004 91.6988 16.5383 92.4111 15.9326C92.5685 15.7886 92.7002 15.7113 92.8064 15.7009L92.9019 15.6916C93.093 15.6728 93.2023 15.6943 93.2298 15.7559C93.2785 15.8154 93.307 15.8876 93.3153 15.9726C93.3237 16.0575 93.3203 16.1328 93.3053 16.1986C93.2733 16.3089 93.169 16.4478 92.9925 16.6151C91.7211 17.6401 90.3539 18.235 88.891 18.3998ZM87.629 15.694C87.8963 15.7964 88.0936 15.8414 88.221 15.8289C88.4333 15.8081 88.6003 15.6524 88.7218 15.3618C88.758 15.294 88.773 15.2282 88.7668 15.1645C88.7818 15.0987 88.7766 15.0456 88.7512 15.0053C88.5921 14.9137 88.451 14.8954 88.3278 14.9503C88.0176 15.0665 87.7847 15.3144 87.629 15.694ZM89.8614 19.0764C89.6599 18.9889 89.5881 18.8031 89.646 18.5187L89.7228 18.3183L90.0812 17.3828C90.2861 16.8483 90.5721 16.0486 90.9393 14.9837L92.3006 10.831C92.418 10.498 92.5312 10.1225 92.6403 9.70452C92.7706 9.28447 92.9201 8.84111 93.0887 8.37443C93.1869 8.0647 93.2712 7.83136 93.3416 7.67442C93.3969 7.58325 93.4661 7.52288 93.5489 7.49333C93.6509 7.44046 93.7571 7.43005 93.8674 7.46211C94.1113 7.54537 94.215 7.72813 94.1784 8.01038L94.0279 8.44313C93.5387 10.013 92.7837 12.3699 91.7629 15.5138L91.6955 15.8098C92.3761 15.1 92.9704 14.6024 93.4783 14.3168C93.659 14.1919 93.7706 14.1274 93.813 14.1232C93.8746 14.0957 93.9585 14.0768 94.0647 14.0664C94.2558 14.0476 94.3904 14.1095 94.4687 14.2518C94.5195 14.3326 94.548 14.4048 94.5542 14.4685C94.5688 14.6171 94.508 14.7624 94.3719 14.9044C94.2762 15.021 94.1677 15.1173 94.0466 15.1935L93.0356 16.0322C92.9973 16.0788 92.9388 16.1381 92.8601 16.2101C92.8006 16.2588 92.7219 16.3308 92.624 16.4262C92.781 16.4965 92.9125 16.5265 93.0187 16.5161L93.3977 16.4468C94.1517 16.2657 95.079 15.8854 96.1797 15.3059L96.728 14.9949C96.7684 14.9695 96.831 14.9527 96.9159 14.9444C97.0646 14.9298 97.1886 14.9927 97.2881 15.133C97.3135 15.1733 97.3293 15.2254 97.3356 15.2891C97.3481 15.4165 97.2852 15.5405 97.147 15.6612C97.1278 15.6846 97.029 15.7693 96.8504 15.9154C95.9299 16.5844 94.8633 17.0748 93.6506 17.3866C93.4 17.454 93.211 17.494 93.0836 17.5065C92.6165 17.5523 92.2092 17.4422 91.8616 17.1762C91.3662 17.5891 90.9917 18.0331 90.7382 18.5081C90.5721 18.7816 90.4794 18.93 90.4603 18.9533C90.3645 19.0699 90.253 19.1344 90.1256 19.1469C90.0619 19.1532 89.9738 19.1297 89.8614 19.0764Z" fill="#404040"/>
</svg>
