<?xml version="1.0" encoding="utf-8"?>
<!-- Generator: Adobe Illustrator 27.2.0, SVG Export Plug-In . SVG Version: 6.00 Build 0)  -->
<svg version="1.1" id="Capa_1" xmlns="http://www.w3.org/2000/svg" xmlns:xlink="http://www.w3.org/1999/xlink" x="0px" y="0px"
	viewBox="0 0 284 286" style="enable-background:new 0 0 284 286;" xml:space="preserve">
<style type="text/css">
	.st0{fill:#9C1915;}
	.st1{fill:#FFFFFF;}
</style>
<g>
	<g>
		<path class="st0" d="M258.7,276.1L156.7,150c-2.9-3.5-2.9-8.6,0-12.1L259.5,8.7c2.6-3.2,6.9-4.5,10.8-3.1c3.9,1.4,6.5,5.1,6.5,9.2
			L276,270.1c0,4.1-2.6,7.8-6.5,9.1c-1.1,0.4-2.1,0.6-3.2,0.6C263.4,279.7,260.6,278.5,258.7,276.1z M176.7,143.8l80,98.9l0.7-200.1
			L176.7,143.8z"/>
	</g>
	<g>
		<path class="st0" d="M117.1,5.3h97c3.7,0,7.1,2.1,8.7,5.4c1.6,3.3,1.2,7.3-1,10.2l-92.5,120.4l92.6,123.2
			c2.2,2.9,2.6,6.9,0.9,10.2c-1.6,3.3-5,5.4-8.7,5.4h-97c-5.4,0-9.7-4.3-9.7-9.7c0-5.4,4.3-9.7,9.7-9.7h77.6l-85.4-113.5
			c-2.6-3.5-2.6-8.3,0.1-11.7l85-110.6h-77.3c-5.4,0-9.7-4.3-9.7-9.7S111.7,5.3,117.1,5.3z"/>
	</g>
</g>
<g>
	<g>
		<path class="st0" d="M17.8,279.1c-1.1,0-2.2-0.2-3.2-0.6c-3.9-1.4-6.5-5-6.5-9.1L7.2,14.1c0-4.1,2.6-7.8,6.5-9.2
			C17.6,3.5,22,4.8,24.5,8l102.9,129.2c2.8,3.6,2.8,8.6,0,12.1l-102,126.2C23.5,277.8,20.7,279.1,17.8,279.1z M26.7,41.9l0.7,200.1
			l80-98.9L26.7,41.9z"/>
	</g>
	<g>
		<path class="st0" d="M167,5.6h-97c-3.7,0-7.1,2.1-8.7,5.4c-1.6,3.3-1.2,7.3,1,10.2l92.5,120.4L62.2,264.8
			c-2.2,2.9-2.6,6.9-0.9,10.2c1.6,3.3,5,5.4,8.7,5.4h97c5.4,0,9.7-4.3,9.7-9.7c0-5.4-4.3-9.7-9.7-9.7H89.4l85.4-113.5
			c2.6-3.5,2.6-8.3-0.1-11.7l-85-110.6H167c5.4,0,9.7-4.3,9.7-9.7S172.3,5.6,167,5.6z"/>
	</g>
</g>
</svg>
