<?xml version="1.0" encoding="UTF-8"?>
<svg id="Capa_1" data-name="Capa 1" xmlns="http://www.w3.org/2000/svg" viewBox="0 0 314.5 326">
  <defs>
    <style>
      .cls-1 {
        fill: #fff;
      }
    </style>
  </defs>
  <g>
    <path class="cls-1" d="m273.95,296.76l-102.04-126.15c-2.86-3.54-2.88-8.59-.05-12.15L274.75,29.3c2.57-3.23,6.91-4.48,10.81-3.11,3.9,1.37,6.5,5.06,6.49,9.19l-.84,255.32c-.01,4.11-2.61,7.76-6.48,9.12-1.06.37-2.14.55-3.22.55-2.87,0-5.67-1.28-7.55-3.6Zm-82.05-132.3l79.98,98.88.66-200.13-80.64,101.24Z"/>
    <path class="cls-1" d="m132.31,25.92h97.05c3.7,0,7.07,2.1,8.71,5.42,1.63,3.32,1.24,7.27-1.01,10.2l-92.55,120.41,92.61,123.17c2.21,2.94,2.57,6.88.93,10.17-1.64,3.29-5,5.37-8.68,5.37h-97.05c-5.36,0-9.7-4.35-9.7-9.7s4.35-9.7,9.7-9.7h77.61l-85.36-113.53c-2.62-3.48-2.59-8.29.06-11.75l85.04-110.64h-77.35c-5.36,0-9.7-4.35-9.7-9.7s4.35-9.7,9.7-9.7Z"/>
  </g>
  <g>
    <path class="cls-1" d="m33,299.73c-1.08,0-2.16-.18-3.22-.55-3.87-1.36-6.47-5.02-6.48-9.12l-.84-255.32c-.01-4.13,2.59-7.82,6.49-9.19,3.9-1.37,8.23-.12,10.81,3.11l102.88,129.17c2.83,3.56,2.82,8.61-.05,12.15l-102.04,126.15c-1.88,2.32-4.67,3.6-7.55,3.6Zm8.96-237.15l.66,200.13,79.98-98.88L41.96,62.58Z"/>
    <path class="cls-1" d="m182.19,26.28h-97.05c-3.7,0-7.07,2.1-8.71,5.42-1.63,3.32-1.24,7.27,1.01,10.2l92.55,120.41-92.61,123.17c-2.21,2.94-2.57,6.88-.93,10.17,1.64,3.29,5,5.37,8.68,5.37h97.05c5.36,0,9.7-4.35,9.7-9.7s-4.35-9.7-9.7-9.7h-77.61s85.36-113.53,85.36-113.53c2.62-3.48,2.59-8.29-.06-11.75L104.85,45.69h77.35c5.36,0,9.7-4.35,9.7-9.7,0-5.36-4.35-9.7-9.7-9.7Z"/>
  </g>
</svg>