<?xml version="1.0" encoding="UTF-8"?>
<svg id="Capa_1" data-name="Capa 1" xmlns="http://www.w3.org/2000/svg" viewBox="0 0 685.57 342.44">
  <defs>
    <style>
      .cls-1 {
        fill: #fff;
      }
    </style>
  </defs>
  <path class="cls-1" d="m630.02,305.54l-102.04-126.15c-2.86-3.54-2.88-8.59-.05-12.15l102.88-129.17c2.57-3.23,6.91-4.48,10.81-3.11,3.9,1.37,6.5,5.06,6.49,9.19l-.84,255.32c-.01,4.11-2.61,7.76-6.48,9.12-1.06.37-2.14.55-3.22.55-2.87,0-5.67-1.28-7.55-3.6Zm-82.05-132.3l79.98,98.88.66-200.13-80.64,101.24Z"/>
  <path class="cls-1" d="m48,308.15c-1.08,0-2.16-.18-3.22-.55-3.87-1.36-6.47-5.02-6.48-9.12l-.84-255.32c-.01-4.13,2.59-7.82,6.49-9.19,3.9-1.37,8.23-.12,10.81,3.11l102.88,129.17c2.83,3.56,2.82,8.61-.05,12.15l-102.04,126.15c-1.88,2.32-4.67,3.6-7.55,3.6Zm8.96-237.15l.66,200.13,79.98-98.88L56.96,71Z"/>
  <path class="cls-1" d="m194.72,308.15h-97.05c-3.7,0-7.07-2.1-8.71-5.42-1.63-3.32-1.24-7.27,1.01-10.2l92.55-120.41L89.91,48.95c-2.21-2.94-2.57-6.88-.93-10.17,1.64-3.29,5-5.37,8.68-5.37h97.05c5.36,0,9.7,4.35,9.7,9.7s-4.35,9.7-9.7,9.7h-77.61l85.36,113.53c2.62,3.48,2.59,8.29-.06,11.75l-85.04,110.64h77.35c5.36,0,9.7,4.35,9.7,9.7s-4.35,9.7-9.7,9.7Z"/>
  <path class="cls-1" d="m491.02,308.15h97.05c3.7,0,7.07-2.1,8.71-5.42s1.24-7.27-1.01-10.2l-92.55-120.41,92.61-123.17c2.21-2.94,2.57-6.88.93-10.17-1.64-3.29-5-5.37-8.68-5.37h-97.05c-5.36,0-9.7,4.35-9.7,9.7,0,5.36,4.35,9.7,9.7,9.7h77.61s-85.36,113.53-85.36,113.53c-2.62,3.48-2.59,8.29.06,11.75l85.04,110.64h-77.35c-5.36,0-9.7,4.35-9.7,9.7s4.35,9.7,9.7,9.7Z"/>
  <path class="cls-1" d="m280.65,309.11c-5.36,0-9.7-4.35-9.7-9.7v-87.61l-4.92,42.35c-.57,4.89-4.71,8.59-9.64,8.59s-9.07-3.69-9.64-8.59l-4.92-42.35v87.61c0,5.36-4.35,9.7-9.7,9.7s-9.7-4.35-9.7-9.7V44.08c0-5.14,4.01-9.39,9.14-9.69,5.12-.3,9.61,3.46,10.2,8.57l14.62,125.92,14.62-125.92c.59-5.11,5.07-8.86,10.2-8.57,5.13.3,9.14,4.55,9.14,9.69v255.32c0,5.36-4.35,9.7-9.7,9.7Z"/>
  <path class="cls-1" d="m453.29,309.11c-4.61,0-8.65-3.28-9.53-7.89l-29.28-154.09v152.28c0,5.36-4.35,9.7-9.7,9.7s-9.7-4.35-9.7-9.7V44.08c0-5.01,3.81-9.19,8.79-9.66,5-.46,9.51,2.93,10.44,7.85l29.28,154.09V44.08c0-5.36,4.35-9.7,9.7-9.7s9.7,4.35,9.7,9.7v255.32c0,5.01-3.81,9.19-8.79,9.66-.31.03-.62.04-.92.04Z"/>
  <path class="cls-1" d="m367.79,308.27h-51.94c-4.16,0-7.53-4.35-7.53-9.71V43.01c0-5.36,3.37-9.71,7.53-9.71h51.94c4.16,0,7.53,4.35,7.53,9.71v255.55c0,5.36-3.37,9.71-7.53,9.71Zm-41.23-19.43h30.51V52.72h-30.51v236.13Z"/>
</svg>